# xmcd
#
# Track frame offsets:
# 150
# 21162
# 36803
# 54765
# 68192
# 85641
# 100877
# 114709
# 125140
# 141914
# 159363
# 173411
# 187729
# 205772
# 218200
# 231816
# 250885
# 272329
# 292612
# 303475
#
# Disc length: 4293 seconds
#
#
# Revision: 7
# Processed by: cddbd v1.5.1PL0 Copyright (c) Steve Scherf et al.
# Submitted via: FreeRIP 2.941 
#
DISCID=0810c314
DTITLE=Bee Gees - As 20 Mais de Bee Gees
DYEAR=1900
DGENRE=Blues
TTITLE0=Stayin' Alive
TTITLE1=Night Fever
TTITLE2=More Than a Woman
TTITLE3=To Love Somebody
TTITLE4=Tomorrow Tomorrow
TTITLE5=Don't Forget to Remember
TTITLE6=I Started a Joke
TTITLE7=Massachussets
TTITLE8=It Doens't Matter Much to Me
TTITLE9=How Can You Mend a Broken Heart
TTITLE10=Method to My Madness
TTITLE11=Words
TTITLE12=How Deep is Your Love
TTITLE13=First of May
TTITLE14=Cherry Red
TTITLE15=My World
TTITLE16=Too Much Heaven
TTITLE17=Lamplight
TTITLE18=When the Swallows Fly
TTITLE19=Immortality (Featuring "Celine Dion")
EXTD=0\nMelodia
EXTT0=
EXTT1=
EXTT2=
EXTT3=
EXTT4=
EXTT5=
EXTT6=
EXTT7=
EXTT8=
EXTT9=
EXTT10=
EXTT11=
EXTT12=
EXTT13=
EXTT14=
EXTT15=
EXTT16=
EXTT17=
EXTT18=
EXTT19=
PLAYORDER=
